ISO-10303-21;
HEADER;
FILE_DESCRIPTION(('FreeCAD Model'),'2;1');
FILE_NAME('Open CASCADE Shape Model','2026-04-11T23:20:10',(''),(''),
  'Open CASCADE STEP processor 7.8','FreeCAD','Unknown');
FILE_SCHEMA(('AUTOMOTIVE_DESIGN { 1 0 10303 214 1 1 1 1 }'));
ENDSEC;
DATA;
#1 = APPLICATION_PROTOCOL_DEFINITION('international standard',
  'automotive_design',2000,#2);
#2 = APPLICATION_CONTEXT(
  'core data for automotive mechanical design processes');
#3 = SHAPE_DEFINITION_REPRESENTATION(#4,#10);
#4 = PRODUCT_DEFINITION_SHAPE('','',#5);
#5 = PRODUCT_DEFINITION('design','',#6,#9);
#6 = PRODUCT_DEFINITION_FORMATION('','',#7);
#7 = PRODUCT('heater_front_bracket','heater_front_bracket','',(#8));
#8 = PRODUCT_CONTEXT('',#2,'mechanical');
#9 = PRODUCT_DEFINITION_CONTEXT('part definition',#2,'design');
#10 = ADVANCED_BREP_SHAPE_REPRESENTATION('',(#11,#15),#982);
#11 = AXIS2_PLACEMENT_3D('',#12,#13,#14);
#12 = CARTESIAN_POINT('',(0.,0.,0.));
#13 = DIRECTION('',(0.,0.,1.));
#14 = DIRECTION('',(1.,0.,-0.));
#15 = MANIFOLD_SOLID_BREP('',#16);
#16 = CLOSED_SHELL('',(#17,#157,#188,#213,#238,#262,#286,#311,#336,#361,
    #419,#444,#469,#493,#552,#577,#602,#634,#725,#750,#838,#851,#868,
    #885,#902,#919,#936,#948,#965));
#17 = ADVANCED_FACE('',(#18,#130,#141),#152,.F.);
#18 = FACE_BOUND('',#19,.F.);
#19 = EDGE_LOOP('',(#20,#30,#39,#47,#56,#65,#74,#82,#90,#98,#106,#115,
    #123));
#20 = ORIENTED_EDGE('',*,*,#21,.T.);
#21 = EDGE_CURVE('',#22,#24,#26,.T.);
#22 = VERTEX_POINT('',#23);
#23 = CARTESIAN_POINT('',(-48.72339182284,-6.294305745404,0.));
#24 = VERTEX_POINT('',#25);
#25 = CARTESIAN_POINT('',(-48.06164072527,-5.349227234455,0.));
#26 = LINE('',#27,#28);
#27 = CARTESIAN_POINT('',(-48.72339182284,-6.294305745404,0.));
#28 = VECTOR('',#29,1.);
#29 = DIRECTION('',(0.573576436351,0.819152044289,0.));
#30 = ORIENTED_EDGE('',*,*,#31,.T.);
#31 = EDGE_CURVE('',#24,#32,#34,.T.);
#32 = VERTEX_POINT('',#33);
#33 = CARTESIAN_POINT('',(-46.71786791051,-4.714010160729,0.));
#34 = CIRCLE('',#35,1.5);
#35 = AXIS2_PLACEMENT_3D('',#36,#37,#38);
#36 = CARTESIAN_POINT('',(-46.83291265884,-6.209591888982,0.));
#37 = DIRECTION('',(-0.,-0.,-1.));
#38 = DIRECTION('',(0.,-1.,0.));
#39 = ORIENTED_EDGE('',*,*,#40,.F.);
#40 = EDGE_CURVE('',#41,#32,#43,.T.);
#41 = VERTEX_POINT('',#42);
#42 = CARTESIAN_POINT('',(-12.49310841562,-7.346683968029,0.));
#43 = LINE('',#44,#45);
#44 = CARTESIAN_POINT('',(-12.14996087596,-7.373079932618,0.));
#45 = VECTOR('',#46,1.);
#46 = DIRECTION('',(-0.997054485502,7.669649888474E-02,0.));
#47 = ORIENTED_EDGE('',*,*,#48,.T.);
#48 = EDGE_CURVE('',#41,#49,#51,.T.);
#49 = VERTEX_POINT('',#50);
#50 = CARTESIAN_POINT('',(-11.89683866469,-7.521647779114,0.));
#51 = CIRCLE('',#52,1.5);
#52 = AXIS2_PLACEMENT_3D('',#53,#54,#55);
#53 = CARTESIAN_POINT('',(-12.60815316394,-8.842265696281,0.));
#54 = DIRECTION('',(-0.,-0.,-1.));
#55 = DIRECTION('',(0.,-1.,0.));
#56 = ORIENTED_EDGE('',*,*,#57,.T.);
#57 = EDGE_CURVE('',#49,#58,#60,.T.);
#58 = VERTEX_POINT('',#59);
#59 = CARTESIAN_POINT('',(-8.664082038759,-7.770321365724,0.));
#60 = CIRCLE('',#61,4.);
#61 = AXIS2_PLACEMENT_3D('',#62,#63,#64);
#62 = CARTESIAN_POINT('',(-10.,-4.,0.));
#63 = DIRECTION('',(0.,0.,1.));
#64 = DIRECTION('',(1.,0.,0.));
#65 = ORIENTED_EDGE('',*,*,#66,.F.);
#66 = EDGE_CURVE('',#67,#58,#69,.T.);
#67 = VERTEX_POINT('',#68);
#68 = CARTESIAN_POINT('',(-8.048068054967,-7.688610149618,0.));
#69 = CIRCLE('',#70,1.5);
#70 = AXIS2_PLACEMENT_3D('',#71,#72,#73);
#71 = CARTESIAN_POINT('',(-8.163112803294,-9.18419187787,0.));
#72 = DIRECTION('',(-0.,0.,1.));
#73 = DIRECTION('',(0.,-1.,0.));
#74 = ORIENTED_EDGE('',*,*,#75,.F.);
#75 = EDGE_CURVE('',#76,#67,#78,.T.);
#76 = VERTEX_POINT('',#77);
#77 = CARTESIAN_POINT('',(-4.,-8.,0.));
#78 = LINE('',#79,#80);
#79 = CARTESIAN_POINT('',(-4.,-8.,0.));
#80 = VECTOR('',#81,1.);
#81 = DIRECTION('',(-0.997054485502,7.669649888474E-02,0.));
#82 = ORIENTED_EDGE('',*,*,#83,.F.);
#83 = EDGE_CURVE('',#84,#76,#86,.T.);
#84 = VERTEX_POINT('',#85);
#85 = CARTESIAN_POINT('',(-3.1,-8.,0.));
#86 = LINE('',#87,#88);
#87 = CARTESIAN_POINT('',(0.,-8.,0.));
#88 = VECTOR('',#89,1.);
#89 = DIRECTION('',(-1.,0.,0.));
#90 = ORIENTED_EDGE('',*,*,#91,.T.);
#91 = EDGE_CURVE('',#84,#92,#94,.T.);
#92 = VERTEX_POINT('',#93);
#93 = CARTESIAN_POINT('',(-3.1,4.440892098501E-16,0.));
#94 = LINE('',#95,#96);
#95 = CARTESIAN_POINT('',(-3.1,-8.,0.));
#96 = VECTOR('',#97,1.);
#97 = DIRECTION('',(0.,1.,0.));
#98 = ORIENTED_EDGE('',*,*,#99,.T.);
#99 = EDGE_CURVE('',#92,#100,#102,.T.);
#100 = VERTEX_POINT('',#101);
#101 = CARTESIAN_POINT('',(-54.5,2.22044604925E-16,0.));
#102 = LINE('',#103,#104);
#103 = CARTESIAN_POINT('',(0.,0.,0.));
#104 = VECTOR('',#105,1.);
#105 = DIRECTION('',(-1.,0.,0.));
#106 = ORIENTED_EDGE('',*,*,#107,.F.);
#107 = EDGE_CURVE('',#108,#100,#110,.T.);
#108 = VERTEX_POINT('',#109);
#109 = CARTESIAN_POINT('',(-56.,-1.5,0.));
#110 = CIRCLE('',#111,1.5);
#111 = AXIS2_PLACEMENT_3D('',#112,#113,#114);
#112 = CARTESIAN_POINT('',(-54.5,-1.5,0.));
#113 = DIRECTION('',(-0.,-0.,-1.));
#114 = DIRECTION('',(0.,-1.,0.));
#115 = ORIENTED_EDGE('',*,*,#116,.T.);
#116 = EDGE_CURVE('',#108,#117,#119,.T.);
#117 = VERTEX_POINT('',#118);
#118 = CARTESIAN_POINT('',(-56.,-4.,0.));
#119 = LINE('',#120,#121);
#120 = CARTESIAN_POINT('',(-56.,0.,0.));
#121 = VECTOR('',#122,1.);
#122 = DIRECTION('',(0.,-1.,0.));
#123 = ORIENTED_EDGE('',*,*,#124,.T.);
#124 = EDGE_CURVE('',#117,#22,#125,.T.);
#125 = CIRCLE('',#126,4.);
#126 = AXIS2_PLACEMENT_3D('',#127,#128,#129);
#127 = CARTESIAN_POINT('',(-52.,-4.,0.));
#128 = DIRECTION('',(0.,0.,1.));
#129 = DIRECTION('',(1.,0.,0.));
#130 = FACE_BOUND('',#131,.F.);
#131 = EDGE_LOOP('',(#132));
#132 = ORIENTED_EDGE('',*,*,#133,.F.);
#133 = EDGE_CURVE('',#134,#134,#136,.T.);
#134 = VERTEX_POINT('',#135);
#135 = CARTESIAN_POINT('',(-50.3,-4.,0.));
#136 = CIRCLE('',#137,1.7);
#137 = AXIS2_PLACEMENT_3D('',#138,#139,#140);
#138 = CARTESIAN_POINT('',(-52.,-4.,0.));
#139 = DIRECTION('',(0.,0.,1.));
#140 = DIRECTION('',(1.,0.,0.));
#141 = FACE_BOUND('',#142,.F.);
#142 = EDGE_LOOP('',(#143));
#143 = ORIENTED_EDGE('',*,*,#144,.F.);
#144 = EDGE_CURVE('',#145,#145,#147,.T.);
#145 = VERTEX_POINT('',#146);
#146 = CARTESIAN_POINT('',(-8.3,-4.,0.));
#147 = CIRCLE('',#148,1.7);
#148 = AXIS2_PLACEMENT_3D('',#149,#150,#151);
#149 = CARTESIAN_POINT('',(-10.,-4.,0.));
#150 = DIRECTION('',(0.,0.,1.));
#151 = DIRECTION('',(1.,0.,0.));
#152 = PLANE('',#153);
#153 = AXIS2_PLACEMENT_3D('',#154,#155,#156);
#154 = CARTESIAN_POINT('',(-28.15497841545,-3.426526331493,0.));
#155 = DIRECTION('',(0.,0.,1.));
#156 = DIRECTION('',(1.,0.,0.));
#157 = ADVANCED_FACE('',(#158),#183,.F.);
#158 = FACE_BOUND('',#159,.F.);
#159 = EDGE_LOOP('',(#160,#161,#169,#177));
#160 = ORIENTED_EDGE('',*,*,#21,.F.);
#161 = ORIENTED_EDGE('',*,*,#162,.T.);
#162 = EDGE_CURVE('',#22,#163,#165,.T.);
#163 = VERTEX_POINT('',#164);
#164 = CARTESIAN_POINT('',(-48.72339182284,-6.294305745404,1.5));
#165 = LINE('',#166,#167);
#166 = CARTESIAN_POINT('',(-48.72339182284,-6.294305745404,0.));
#167 = VECTOR('',#168,1.);
#168 = DIRECTION('',(0.,0.,1.));
#169 = ORIENTED_EDGE('',*,*,#170,.T.);
#170 = EDGE_CURVE('',#163,#171,#173,.T.);
#171 = VERTEX_POINT('',#172);
#172 = CARTESIAN_POINT('',(-48.06164072527,-5.349227234455,1.5));
#173 = LINE('',#174,#175);
#174 = CARTESIAN_POINT('',(-48.72339182284,-6.294305745404,1.5));
#175 = VECTOR('',#176,1.);
#176 = DIRECTION('',(0.573576436351,0.819152044289,0.));
#177 = ORIENTED_EDGE('',*,*,#178,.F.);
#178 = EDGE_CURVE('',#24,#171,#179,.T.);
#179 = LINE('',#180,#181);
#180 = CARTESIAN_POINT('',(-48.06164072527,-5.349227234455,0.));
#181 = VECTOR('',#182,1.);
#182 = DIRECTION('',(0.,0.,1.));
#183 = PLANE('',#184);
#184 = AXIS2_PLACEMENT_3D('',#185,#186,#187);
#185 = CARTESIAN_POINT('',(-48.72339182284,-6.294305745404,0.));
#186 = DIRECTION('',(-0.819152044289,0.573576436351,0.));
#187 = DIRECTION('',(0.573576436351,0.819152044289,0.));
#188 = ADVANCED_FACE('',(#189),#208,.F.);
#189 = FACE_BOUND('',#190,.T.);
#190 = EDGE_LOOP('',(#191,#192,#200,#207));
#191 = ORIENTED_EDGE('',*,*,#31,.T.);
#192 = ORIENTED_EDGE('',*,*,#193,.T.);
#193 = EDGE_CURVE('',#32,#194,#196,.T.);
#194 = VERTEX_POINT('',#195);
#195 = CARTESIAN_POINT('',(-46.71786791051,-4.714010160729,1.5));
#196 = LINE('',#197,#198);
#197 = CARTESIAN_POINT('',(-46.71786791051,-4.714010160729,0.));
#198 = VECTOR('',#199,1.);
#199 = DIRECTION('',(0.,0.,1.));
#200 = ORIENTED_EDGE('',*,*,#201,.F.);
#201 = EDGE_CURVE('',#171,#194,#202,.T.);
#202 = CIRCLE('',#203,1.5);
#203 = AXIS2_PLACEMENT_3D('',#204,#205,#206);
#204 = CARTESIAN_POINT('',(-46.83291265884,-6.209591888982,1.5));
#205 = DIRECTION('',(-0.,-0.,-1.));
#206 = DIRECTION('',(0.,-1.,0.));
#207 = ORIENTED_EDGE('',*,*,#178,.F.);
#208 = CYLINDRICAL_SURFACE('',#209,1.5);
#209 = AXIS2_PLACEMENT_3D('',#210,#211,#212);
#210 = CARTESIAN_POINT('',(-46.83291265884,-6.209591888982,0.));
#211 = DIRECTION('',(0.,0.,1.));
#212 = DIRECTION('',(-0.819152044289,0.573576436351,0.));
#213 = ADVANCED_FACE('',(#214),#233,.T.);
#214 = FACE_BOUND('',#215,.F.);
#215 = EDGE_LOOP('',(#216,#224,#231,#232));
#216 = ORIENTED_EDGE('',*,*,#217,.T.);
#217 = EDGE_CURVE('',#117,#218,#220,.T.);
#218 = VERTEX_POINT('',#219);
#219 = CARTESIAN_POINT('',(-56.,-4.,1.5));
#220 = LINE('',#221,#222);
#221 = CARTESIAN_POINT('',(-56.,-4.,0.));
#222 = VECTOR('',#223,1.);
#223 = DIRECTION('',(0.,0.,1.));
#224 = ORIENTED_EDGE('',*,*,#225,.T.);
#225 = EDGE_CURVE('',#218,#163,#226,.T.);
#226 = CIRCLE('',#227,4.);
#227 = AXIS2_PLACEMENT_3D('',#228,#229,#230);
#228 = CARTESIAN_POINT('',(-52.,-4.,1.5));
#229 = DIRECTION('',(0.,0.,1.));
#230 = DIRECTION('',(1.,0.,0.));
#231 = ORIENTED_EDGE('',*,*,#162,.F.);
#232 = ORIENTED_EDGE('',*,*,#124,.F.);
#233 = CYLINDRICAL_SURFACE('',#234,4.);
#234 = AXIS2_PLACEMENT_3D('',#235,#236,#237);
#235 = CARTESIAN_POINT('',(-52.,-4.,0.));
#236 = DIRECTION('',(-0.,-0.,-1.));
#237 = DIRECTION('',(1.,0.,0.));
#238 = ADVANCED_FACE('',(#239),#257,.T.);
#239 = FACE_BOUND('',#240,.T.);
#240 = EDGE_LOOP('',(#241,#242,#250,#256));
#241 = ORIENTED_EDGE('',*,*,#40,.F.);
#242 = ORIENTED_EDGE('',*,*,#243,.T.);
#243 = EDGE_CURVE('',#41,#244,#246,.T.);
#244 = VERTEX_POINT('',#245);
#245 = CARTESIAN_POINT('',(-12.49310841562,-7.346683968029,1.5));
#246 = LINE('',#247,#248);
#247 = CARTESIAN_POINT('',(-12.49310841562,-7.346683968029,0.));
#248 = VECTOR('',#249,1.);
#249 = DIRECTION('',(0.,0.,1.));
#250 = ORIENTED_EDGE('',*,*,#251,.T.);
#251 = EDGE_CURVE('',#244,#194,#252,.T.);
#252 = LINE('',#253,#254);
#253 = CARTESIAN_POINT('',(-12.14996087596,-7.373079932618,1.5));
#254 = VECTOR('',#255,1.);
#255 = DIRECTION('',(-0.997054485502,7.669649888474E-02,0.));
#256 = ORIENTED_EDGE('',*,*,#193,.F.);
#257 = PLANE('',#258);
#258 = AXIS2_PLACEMENT_3D('',#259,#260,#261);
#259 = CARTESIAN_POINT('',(-12.14996087596,-7.373079932618,0.));
#260 = DIRECTION('',(-7.669649888474E-02,-0.997054485502,0.));
#261 = DIRECTION('',(-0.997054485502,7.669649888474E-02,0.));
#262 = ADVANCED_FACE('',(#263),#281,.F.);
#263 = FACE_BOUND('',#264,.F.);
#264 = EDGE_LOOP('',(#265,#266,#274,#280));
#265 = ORIENTED_EDGE('',*,*,#116,.F.);
#266 = ORIENTED_EDGE('',*,*,#267,.T.);
#267 = EDGE_CURVE('',#108,#268,#270,.T.);
#268 = VERTEX_POINT('',#269);
#269 = CARTESIAN_POINT('',(-56.,-1.5,1.5));
#270 = LINE('',#271,#272);
#271 = CARTESIAN_POINT('',(-56.,-1.5,0.));
#272 = VECTOR('',#273,1.);
#273 = DIRECTION('',(0.,0.,1.));
#274 = ORIENTED_EDGE('',*,*,#275,.T.);
#275 = EDGE_CURVE('',#268,#218,#276,.T.);
#276 = LINE('',#277,#278);
#277 = CARTESIAN_POINT('',(-56.,0.,1.5));
#278 = VECTOR('',#279,1.);
#279 = DIRECTION('',(0.,-1.,0.));
#280 = ORIENTED_EDGE('',*,*,#217,.F.);
#281 = PLANE('',#282);
#282 = AXIS2_PLACEMENT_3D('',#283,#284,#285);
#283 = CARTESIAN_POINT('',(-56.,0.,0.));
#284 = DIRECTION('',(1.,0.,0.));
#285 = DIRECTION('',(0.,-1.,0.));
#286 = ADVANCED_FACE('',(#287),#306,.F.);
#287 = FACE_BOUND('',#288,.T.);
#288 = EDGE_LOOP('',(#289,#290,#298,#305));
#289 = ORIENTED_EDGE('',*,*,#48,.T.);
#290 = ORIENTED_EDGE('',*,*,#291,.T.);
#291 = EDGE_CURVE('',#49,#292,#294,.T.);
#292 = VERTEX_POINT('',#293);
#293 = CARTESIAN_POINT('',(-11.89683866469,-7.521647779114,1.5));
#294 = LINE('',#295,#296);
#295 = CARTESIAN_POINT('',(-11.89683866469,-7.521647779114,0.));
#296 = VECTOR('',#297,1.);
#297 = DIRECTION('',(0.,0.,1.));
#298 = ORIENTED_EDGE('',*,*,#299,.F.);
#299 = EDGE_CURVE('',#244,#292,#300,.T.);
#300 = CIRCLE('',#301,1.5);
#301 = AXIS2_PLACEMENT_3D('',#302,#303,#304);
#302 = CARTESIAN_POINT('',(-12.60815316394,-8.842265696281,1.5));
#303 = DIRECTION('',(-0.,-0.,-1.));
#304 = DIRECTION('',(0.,-1.,0.));
#305 = ORIENTED_EDGE('',*,*,#243,.F.);
#306 = CYLINDRICAL_SURFACE('',#307,1.5);
#307 = AXIS2_PLACEMENT_3D('',#308,#309,#310);
#308 = CARTESIAN_POINT('',(-12.60815316394,-8.842265696281,0.));
#309 = DIRECTION('',(0.,0.,1.));
#310 = DIRECTION('',(7.669649888474E-02,0.997054485502,0.));
#311 = ADVANCED_FACE('',(#312),#331,.T.);
#312 = FACE_BOUND('',#313,.F.);
#313 = EDGE_LOOP('',(#314,#315,#323,#330));
#314 = ORIENTED_EDGE('',*,*,#107,.T.);
#315 = ORIENTED_EDGE('',*,*,#316,.T.);
#316 = EDGE_CURVE('',#100,#317,#319,.T.);
#317 = VERTEX_POINT('',#318);
#318 = CARTESIAN_POINT('',(-54.5,2.22044604925E-16,1.5));
#319 = LINE('',#320,#321);
#320 = CARTESIAN_POINT('',(-54.5,2.22044604925E-16,0.));
#321 = VECTOR('',#322,1.);
#322 = DIRECTION('',(0.,0.,1.));
#323 = ORIENTED_EDGE('',*,*,#324,.F.);
#324 = EDGE_CURVE('',#268,#317,#325,.T.);
#325 = CIRCLE('',#326,1.5);
#326 = AXIS2_PLACEMENT_3D('',#327,#328,#329);
#327 = CARTESIAN_POINT('',(-54.5,-1.5,1.5));
#328 = DIRECTION('',(-0.,-0.,-1.));
#329 = DIRECTION('',(0.,-1.,0.));
#330 = ORIENTED_EDGE('',*,*,#267,.F.);
#331 = CYLINDRICAL_SURFACE('',#332,1.5);
#332 = AXIS2_PLACEMENT_3D('',#333,#334,#335);
#333 = CARTESIAN_POINT('',(-54.5,-1.5,0.));
#334 = DIRECTION('',(0.,0.,1.));
#335 = DIRECTION('',(-1.,0.,0.));
#336 = ADVANCED_FACE('',(#337),#356,.T.);
#337 = FACE_BOUND('',#338,.F.);
#338 = EDGE_LOOP('',(#339,#340,#341,#350));
#339 = ORIENTED_EDGE('',*,*,#57,.F.);
#340 = ORIENTED_EDGE('',*,*,#291,.T.);
#341 = ORIENTED_EDGE('',*,*,#342,.T.);
#342 = EDGE_CURVE('',#292,#343,#345,.T.);
#343 = VERTEX_POINT('',#344);
#344 = CARTESIAN_POINT('',(-8.664082038759,-7.770321365724,1.5));
#345 = CIRCLE('',#346,4.);
#346 = AXIS2_PLACEMENT_3D('',#347,#348,#349);
#347 = CARTESIAN_POINT('',(-10.,-4.,1.5));
#348 = DIRECTION('',(0.,0.,1.));
#349 = DIRECTION('',(1.,0.,0.));
#350 = ORIENTED_EDGE('',*,*,#351,.F.);
#351 = EDGE_CURVE('',#58,#343,#352,.T.);
#352 = LINE('',#353,#354);
#353 = CARTESIAN_POINT('',(-8.664082038759,-7.770321365724,0.));
#354 = VECTOR('',#355,1.);
#355 = DIRECTION('',(0.,0.,1.));
#356 = CYLINDRICAL_SURFACE('',#357,4.);
#357 = AXIS2_PLACEMENT_3D('',#358,#359,#360);
#358 = CARTESIAN_POINT('',(-10.,-4.,0.));
#359 = DIRECTION('',(-0.,-0.,-1.));
#360 = DIRECTION('',(1.,0.,0.));
#361 = ADVANCED_FACE('',(#362),#414,.T.);
#362 = FACE_BOUND('',#363,.T.);
#363 = EDGE_LOOP('',(#364,#374,#381,#382,#383,#391,#400,#408));
#364 = ORIENTED_EDGE('',*,*,#365,.T.);
#365 = EDGE_CURVE('',#366,#368,#370,.T.);
#366 = VERTEX_POINT('',#367);
#367 = CARTESIAN_POINT('',(-1.5,8.881784197001E-16,-17.5));
#368 = VERTEX_POINT('',#369);
#369 = CARTESIAN_POINT('',(-1.5,0.,-1.6));
#370 = LINE('',#371,#372);
#371 = CARTESIAN_POINT('',(-1.5,0.,-21.5));
#372 = VECTOR('',#373,1.);
#373 = DIRECTION('',(-1.110223024625E-16,0.,1.));
#374 = ORIENTED_EDGE('',*,*,#375,.F.);
#375 = EDGE_CURVE('',#92,#368,#376,.T.);
#376 = CIRCLE('',#377,1.6);
#377 = AXIS2_PLACEMENT_3D('',#378,#379,#380);
#378 = CARTESIAN_POINT('',(-3.1,0.,-1.6));
#379 = DIRECTION('',(0.,1.,0.));
#380 = DIRECTION('',(0.,0.,1.));
#381 = ORIENTED_EDGE('',*,*,#99,.T.);
#382 = ORIENTED_EDGE('',*,*,#316,.T.);
#383 = ORIENTED_EDGE('',*,*,#384,.F.);
#384 = EDGE_CURVE('',#385,#317,#387,.T.);
#385 = VERTEX_POINT('',#386);
#386 = CARTESIAN_POINT('',(-3.1,4.440892098501E-16,1.5));
#387 = LINE('',#388,#389);
#388 = CARTESIAN_POINT('',(0.,0.,1.5));
#389 = VECTOR('',#390,1.);
#390 = DIRECTION('',(-1.,0.,0.));
#391 = ORIENTED_EDGE('',*,*,#392,.T.);
#392 = EDGE_CURVE('',#385,#393,#395,.T.);
#393 = VERTEX_POINT('',#394);
#394 = CARTESIAN_POINT('',(-5.621952796568E-16,0.,-1.6));
#395 = CIRCLE('',#396,3.1);
#396 = AXIS2_PLACEMENT_3D('',#397,#398,#399);
#397 = CARTESIAN_POINT('',(-3.1,0.,-1.6));
#398 = DIRECTION('',(0.,1.,0.));
#399 = DIRECTION('',(0.,0.,1.));
#400 = ORIENTED_EDGE('',*,*,#401,.F.);
#401 = EDGE_CURVE('',#402,#393,#404,.T.);
#402 = VERTEX_POINT('',#403);
#403 = CARTESIAN_POINT('',(1.7763568394E-15,8.881784197001E-16,-17.5));
#404 = LINE('',#405,#406);
#405 = CARTESIAN_POINT('',(1.86517468137E-15,0.,-21.5));
#406 = VECTOR('',#407,1.);
#407 = DIRECTION('',(-1.110223024625E-16,0.,1.));
#408 = ORIENTED_EDGE('',*,*,#409,.F.);
#409 = EDGE_CURVE('',#366,#402,#410,.T.);
#410 = LINE('',#411,#412);
#411 = CARTESIAN_POINT('',(-1.5,8.881784197001E-16,-17.5));
#412 = VECTOR('',#413,1.);
#413 = DIRECTION('',(1.,0.,1.110223024625E-16));
#414 = PLANE('',#415);
#415 = AXIS2_PLACEMENT_3D('',#416,#417,#418);
#416 = CARTESIAN_POINT('',(-20.86121118842,0.,-2.638813574044));
#417 = DIRECTION('',(0.,1.,0.));
#418 = DIRECTION('',(0.,0.,1.));
#419 = ADVANCED_FACE('',(#420),#439,.F.);
#420 = FACE_BOUND('',#421,.F.);
#421 = EDGE_LOOP('',(#422,#423,#424,#433));
#422 = ORIENTED_EDGE('',*,*,#66,.T.);
#423 = ORIENTED_EDGE('',*,*,#351,.T.);
#424 = ORIENTED_EDGE('',*,*,#425,.F.);
#425 = EDGE_CURVE('',#426,#343,#428,.T.);
#426 = VERTEX_POINT('',#427);
#427 = CARTESIAN_POINT('',(-8.048068054967,-7.688610149618,1.5));
#428 = CIRCLE('',#429,1.5);
#429 = AXIS2_PLACEMENT_3D('',#430,#431,#432);
#430 = CARTESIAN_POINT('',(-8.163112803294,-9.18419187787,1.5));
#431 = DIRECTION('',(-0.,0.,1.));
#432 = DIRECTION('',(0.,-1.,0.));
#433 = ORIENTED_EDGE('',*,*,#434,.F.);
#434 = EDGE_CURVE('',#67,#426,#435,.T.);
#435 = LINE('',#436,#437);
#436 = CARTESIAN_POINT('',(-8.048068054967,-7.688610149618,0.));
#437 = VECTOR('',#438,1.);
#438 = DIRECTION('',(0.,0.,1.));
#439 = CYLINDRICAL_SURFACE('',#440,1.5);
#440 = AXIS2_PLACEMENT_3D('',#441,#442,#443);
#441 = CARTESIAN_POINT('',(-8.163112803294,-9.18419187787,0.));
#442 = DIRECTION('',(0.,0.,1.));
#443 = DIRECTION('',(7.669649888474E-02,0.997054485502,0.));
#444 = ADVANCED_FACE('',(#445),#464,.F.);
#445 = FACE_BOUND('',#446,.T.);
#446 = EDGE_LOOP('',(#447,#448,#456,#463));
#447 = ORIENTED_EDGE('',*,*,#375,.T.);
#448 = ORIENTED_EDGE('',*,*,#449,.T.);
#449 = EDGE_CURVE('',#368,#450,#452,.T.);
#450 = VERTEX_POINT('',#451);
#451 = CARTESIAN_POINT('',(-1.5,-8.,-1.6));
#452 = LINE('',#453,#454);
#453 = CARTESIAN_POINT('',(-1.5,0.,-1.6));
#454 = VECTOR('',#455,1.);
#455 = DIRECTION('',(0.,-1.,0.));
#456 = ORIENTED_EDGE('',*,*,#457,.F.);
#457 = EDGE_CURVE('',#84,#450,#458,.T.);
#458 = CIRCLE('',#459,1.6);
#459 = AXIS2_PLACEMENT_3D('',#460,#461,#462);
#460 = CARTESIAN_POINT('',(-3.1,-8.,-1.6));
#461 = DIRECTION('',(0.,1.,0.));
#462 = DIRECTION('',(0.,0.,1.));
#463 = ORIENTED_EDGE('',*,*,#91,.T.);
#464 = CYLINDRICAL_SURFACE('',#465,1.6);
#465 = AXIS2_PLACEMENT_3D('',#466,#467,#468);
#466 = CARTESIAN_POINT('',(-3.1,0.,-1.6));
#467 = DIRECTION('',(0.,-1.,0.));
#468 = DIRECTION('',(0.,0.,1.));
#469 = ADVANCED_FACE('',(#470),#488,.T.);
#470 = FACE_BOUND('',#471,.T.);
#471 = EDGE_LOOP('',(#472,#473,#481,#487));
#472 = ORIENTED_EDGE('',*,*,#75,.F.);
#473 = ORIENTED_EDGE('',*,*,#474,.T.);
#474 = EDGE_CURVE('',#76,#475,#477,.T.);
#475 = VERTEX_POINT('',#476);
#476 = CARTESIAN_POINT('',(-4.,-8.,1.5));
#477 = LINE('',#478,#479);
#478 = CARTESIAN_POINT('',(-4.,-8.,0.));
#479 = VECTOR('',#480,1.);
#480 = DIRECTION('',(0.,0.,1.));
#481 = ORIENTED_EDGE('',*,*,#482,.T.);
#482 = EDGE_CURVE('',#475,#426,#483,.T.);
#483 = LINE('',#484,#485);
#484 = CARTESIAN_POINT('',(-4.,-8.,1.5));
#485 = VECTOR('',#486,1.);
#486 = DIRECTION('',(-0.997054485502,7.669649888474E-02,0.));
#487 = ORIENTED_EDGE('',*,*,#434,.F.);
#488 = PLANE('',#489);
#489 = AXIS2_PLACEMENT_3D('',#490,#491,#492);
#490 = CARTESIAN_POINT('',(-4.,-8.,0.));
#491 = DIRECTION('',(-7.669649888474E-02,-0.997054485502,0.));
#492 = DIRECTION('',(-0.997054485502,7.669649888474E-02,0.));
#493 = ADVANCED_FACE('',(#494),#547,.T.);
#494 = FACE_BOUND('',#495,.T.);
#495 = EDGE_LOOP('',(#496,#504,#512,#520,#529,#538,#544,#545,#546));
#496 = ORIENTED_EDGE('',*,*,#497,.F.);
#497 = EDGE_CURVE('',#498,#450,#500,.T.);
#498 = VERTEX_POINT('',#499);
#499 = CARTESIAN_POINT('',(-1.5,-8.,-2.));
#500 = LINE('',#501,#502);
#501 = CARTESIAN_POINT('',(-1.5,-8.,-3.5));
#502 = VECTOR('',#503,1.);
#503 = DIRECTION('',(0.,0.,1.));
#504 = ORIENTED_EDGE('',*,*,#505,.F.);
#505 = EDGE_CURVE('',#506,#498,#508,.T.);
#506 = VERTEX_POINT('',#507);
#507 = CARTESIAN_POINT('',(0.,-8.,-2.));
#508 = LINE('',#509,#510);
#509 = CARTESIAN_POINT('',(0.,-8.,-2.));
#510 = VECTOR('',#511,1.);
#511 = DIRECTION('',(-1.,-0.,-0.));
#512 = ORIENTED_EDGE('',*,*,#513,.T.);
#513 = EDGE_CURVE('',#506,#514,#516,.T.);
#514 = VERTEX_POINT('',#515);
#515 = CARTESIAN_POINT('',(-4.305991455985E-16,-8.,-1.6));
#516 = LINE('',#517,#518);
#517 = CARTESIAN_POINT('',(0.,-8.,-3.5));
#518 = VECTOR('',#519,1.);
#519 = DIRECTION('',(0.,0.,1.));
#520 = ORIENTED_EDGE('',*,*,#521,.F.);
#521 = EDGE_CURVE('',#522,#514,#524,.T.);
#522 = VERTEX_POINT('',#523);
#523 = CARTESIAN_POINT('',(-0.44481639053,-8.,-6.883382752676E-14));
#524 = CIRCLE('',#525,3.1);
#525 = AXIS2_PLACEMENT_3D('',#526,#527,#528);
#526 = CARTESIAN_POINT('',(-3.1,-8.,-1.6));
#527 = DIRECTION('',(0.,1.,0.));
#528 = DIRECTION('',(0.,0.,1.));
#529 = ORIENTED_EDGE('',*,*,#530,.F.);
#530 = EDGE_CURVE('',#531,#522,#533,.T.);
#531 = VERTEX_POINT('',#532);
#532 = CARTESIAN_POINT('',(-3.1,-8.,1.5));
#533 = CIRCLE('',#534,3.1);
#534 = AXIS2_PLACEMENT_3D('',#535,#536,#537);
#535 = CARTESIAN_POINT('',(-3.1,-8.,-1.6));
#536 = DIRECTION('',(0.,1.,0.));
#537 = DIRECTION('',(0.,0.,1.));
#538 = ORIENTED_EDGE('',*,*,#539,.T.);
#539 = EDGE_CURVE('',#531,#475,#540,.T.);
#540 = LINE('',#541,#542);
#541 = CARTESIAN_POINT('',(0.,-8.,1.5));
#542 = VECTOR('',#543,1.);
#543 = DIRECTION('',(-1.,0.,0.));
#544 = ORIENTED_EDGE('',*,*,#474,.F.);
#545 = ORIENTED_EDGE('',*,*,#83,.F.);
#546 = ORIENTED_EDGE('',*,*,#457,.T.);
#547 = PLANE('',#548);
#548 = AXIS2_PLACEMENT_3D('',#549,#550,#551);
#549 = CARTESIAN_POINT('',(-1.701341468818,-8.,-0.768467391757));
#550 = DIRECTION('',(-0.,-1.,-0.));
#551 = DIRECTION('',(0.,0.,-1.));
#552 = ADVANCED_FACE('',(#553),#572,.F.);
#553 = FACE_BOUND('',#554,.T.);
#554 = EDGE_LOOP('',(#555,#563,#570,#571));
#555 = ORIENTED_EDGE('',*,*,#556,.T.);
#556 = EDGE_CURVE('',#134,#557,#559,.T.);
#557 = VERTEX_POINT('',#558);
#558 = CARTESIAN_POINT('',(-50.3,-4.,1.5));
#559 = LINE('',#560,#561);
#560 = CARTESIAN_POINT('',(-50.3,-4.,0.));
#561 = VECTOR('',#562,1.);
#562 = DIRECTION('',(0.,0.,1.));
#563 = ORIENTED_EDGE('',*,*,#564,.T.);
#564 = EDGE_CURVE('',#557,#557,#565,.T.);
#565 = CIRCLE('',#566,1.7);
#566 = AXIS2_PLACEMENT_3D('',#567,#568,#569);
#567 = CARTESIAN_POINT('',(-52.,-4.,1.5));
#568 = DIRECTION('',(0.,0.,1.));
#569 = DIRECTION('',(1.,0.,0.));
#570 = ORIENTED_EDGE('',*,*,#556,.F.);
#571 = ORIENTED_EDGE('',*,*,#133,.F.);
#572 = CYLINDRICAL_SURFACE('',#573,1.7);
#573 = AXIS2_PLACEMENT_3D('',#574,#575,#576);
#574 = CARTESIAN_POINT('',(-52.,-4.,0.));
#575 = DIRECTION('',(-0.,-0.,-1.));
#576 = DIRECTION('',(1.,0.,0.));
#577 = ADVANCED_FACE('',(#578),#597,.F.);
#578 = FACE_BOUND('',#579,.T.);
#579 = EDGE_LOOP('',(#580,#588,#595,#596));
#580 = ORIENTED_EDGE('',*,*,#581,.T.);
#581 = EDGE_CURVE('',#145,#582,#584,.T.);
#582 = VERTEX_POINT('',#583);
#583 = CARTESIAN_POINT('',(-8.3,-4.,1.5));
#584 = LINE('',#585,#586);
#585 = CARTESIAN_POINT('',(-8.3,-4.,0.));
#586 = VECTOR('',#587,1.);
#587 = DIRECTION('',(0.,0.,1.));
#588 = ORIENTED_EDGE('',*,*,#589,.T.);
#589 = EDGE_CURVE('',#582,#582,#590,.T.);
#590 = CIRCLE('',#591,1.7);
#591 = AXIS2_PLACEMENT_3D('',#592,#593,#594);
#592 = CARTESIAN_POINT('',(-10.,-4.,1.5));
#593 = DIRECTION('',(0.,0.,1.));
#594 = DIRECTION('',(1.,0.,0.));
#595 = ORIENTED_EDGE('',*,*,#581,.F.);
#596 = ORIENTED_EDGE('',*,*,#144,.F.);
#597 = CYLINDRICAL_SURFACE('',#598,1.7);
#598 = AXIS2_PLACEMENT_3D('',#599,#600,#601);
#599 = CARTESIAN_POINT('',(-10.,-4.,0.));
#600 = DIRECTION('',(-0.,-0.,-1.));
#601 = DIRECTION('',(1.,0.,0.));
#602 = ADVANCED_FACE('',(#603,#623,#626),#629,.T.);
#603 = FACE_BOUND('',#604,.T.);
#604 = EDGE_LOOP('',(#605,#606,#607,#608,#609,#610,#611,#612,#613,#619,
    #620,#621,#622));
#605 = ORIENTED_EDGE('',*,*,#170,.T.);
#606 = ORIENTED_EDGE('',*,*,#201,.T.);
#607 = ORIENTED_EDGE('',*,*,#251,.F.);
#608 = ORIENTED_EDGE('',*,*,#299,.T.);
#609 = ORIENTED_EDGE('',*,*,#342,.T.);
#610 = ORIENTED_EDGE('',*,*,#425,.F.);
#611 = ORIENTED_EDGE('',*,*,#482,.F.);
#612 = ORIENTED_EDGE('',*,*,#539,.F.);
#613 = ORIENTED_EDGE('',*,*,#614,.F.);
#614 = EDGE_CURVE('',#385,#531,#615,.T.);
#615 = LINE('',#616,#617);
#616 = CARTESIAN_POINT('',(-3.1,4.440892098501E-16,1.5));
#617 = VECTOR('',#618,1.);
#618 = DIRECTION('',(0.,-1.,0.));
#619 = ORIENTED_EDGE('',*,*,#384,.T.);
#620 = ORIENTED_EDGE('',*,*,#324,.F.);
#621 = ORIENTED_EDGE('',*,*,#275,.T.);
#622 = ORIENTED_EDGE('',*,*,#225,.T.);
#623 = FACE_BOUND('',#624,.T.);
#624 = EDGE_LOOP('',(#625));
#625 = ORIENTED_EDGE('',*,*,#564,.F.);
#626 = FACE_BOUND('',#627,.T.);
#627 = EDGE_LOOP('',(#628));
#628 = ORIENTED_EDGE('',*,*,#589,.F.);
#629 = PLANE('',#630);
#630 = AXIS2_PLACEMENT_3D('',#631,#632,#633);
#631 = CARTESIAN_POINT('',(-28.15497841545,-3.426526331493,1.5));
#632 = DIRECTION('',(0.,0.,1.));
#633 = DIRECTION('',(1.,0.,0.));
#634 = ADVANCED_FACE('',(#635,#698,#709),#720,.T.);
#635 = FACE_BOUND('',#636,.T.);
#636 = EDGE_LOOP('',(#637,#647,#654,#655,#656,#657,#666,#674,#683,#691)
  );
#637 = ORIENTED_EDGE('',*,*,#638,.T.);
#638 = EDGE_CURVE('',#639,#641,#643,.T.);
#639 = VERTEX_POINT('',#640);
#640 = CARTESIAN_POINT('',(-1.5,-24.,-3.5));
#641 = VERTEX_POINT('',#642);
#642 = CARTESIAN_POINT('',(-1.5,-9.5,-3.5));
#643 = LINE('',#644,#645);
#644 = CARTESIAN_POINT('',(-1.5,-28.,-3.5));
#645 = VECTOR('',#646,1.);
#646 = DIRECTION('',(0.,1.,0.));
#647 = ORIENTED_EDGE('',*,*,#648,.T.);
#648 = EDGE_CURVE('',#641,#498,#649,.T.);
#649 = CIRCLE('',#650,1.5);
#650 = AXIS2_PLACEMENT_3D('',#651,#652,#653);
#651 = CARTESIAN_POINT('',(-1.5,-9.5,-2.));
#652 = DIRECTION('',(1.,-0.,0.));
#653 = DIRECTION('',(0.,0.,-1.));
#654 = ORIENTED_EDGE('',*,*,#497,.T.);
#655 = ORIENTED_EDGE('',*,*,#449,.F.);
#656 = ORIENTED_EDGE('',*,*,#365,.F.);
#657 = ORIENTED_EDGE('',*,*,#658,.T.);
#658 = EDGE_CURVE('',#366,#659,#661,.T.);
#659 = VERTEX_POINT('',#660);
#660 = CARTESIAN_POINT('',(-1.5,-4.,-21.5));
#661 = CIRCLE('',#662,4.);
#662 = AXIS2_PLACEMENT_3D('',#663,#664,#665);
#663 = CARTESIAN_POINT('',(-1.5,-4.,-17.5));
#664 = DIRECTION('',(-1.,0.,-1.110223024625E-16));
#665 = DIRECTION('',(-1.110223024625E-16,0.,1.));
#666 = ORIENTED_EDGE('',*,*,#667,.F.);
#667 = EDGE_CURVE('',#668,#659,#670,.T.);
#668 = VERTEX_POINT('',#669);
#669 = CARTESIAN_POINT('',(-1.5,-24.,-21.5));
#670 = LINE('',#671,#672);
#671 = CARTESIAN_POINT('',(-1.5,-8.,-21.5));
#672 = VECTOR('',#673,1.);
#673 = DIRECTION('',(0.,1.,0.));
#674 = ORIENTED_EDGE('',*,*,#675,.T.);
#675 = EDGE_CURVE('',#668,#676,#678,.T.);
#676 = VERTEX_POINT('',#677);
#677 = CARTESIAN_POINT('',(-1.5,-28.,-17.5));
#678 = CIRCLE('',#679,4.);
#679 = AXIS2_PLACEMENT_3D('',#680,#681,#682);
#680 = CARTESIAN_POINT('',(-1.5,-24.,-17.5));
#681 = DIRECTION('',(-1.,0.,-2.368475785867E-15));
#682 = DIRECTION('',(-2.368475785867E-15,0.,1.));
#683 = ORIENTED_EDGE('',*,*,#684,.F.);
#684 = EDGE_CURVE('',#685,#676,#687,.T.);
#685 = VERTEX_POINT('',#686);
#686 = CARTESIAN_POINT('',(-1.5,-28.,-7.5));
#687 = LINE('',#688,#689);
#688 = CARTESIAN_POINT('',(-1.5,-28.,-1.6));
#689 = VECTOR('',#690,1.);
#690 = DIRECTION('',(1.115802034799E-16,0.,-1.));
#691 = ORIENTED_EDGE('',*,*,#692,.F.);
#692 = EDGE_CURVE('',#639,#685,#693,.T.);
#693 = CIRCLE('',#694,4.);
#694 = AXIS2_PLACEMENT_3D('',#695,#696,#697);
#695 = CARTESIAN_POINT('',(-1.5,-24.,-7.5));
#696 = DIRECTION('',(1.,-0.,0.));
#697 = DIRECTION('',(0.,0.,-1.));
#698 = FACE_BOUND('',#699,.T.);
#699 = EDGE_LOOP('',(#700));
#700 = ORIENTED_EDGE('',*,*,#701,.T.);
#701 = EDGE_CURVE('',#702,#702,#704,.T.);
#702 = VERTEX_POINT('',#703);
#703 = CARTESIAN_POINT('',(-1.5,-4.3,-12.5));
#704 = CIRCLE('',#705,1.7);
#705 = AXIS2_PLACEMENT_3D('',#706,#707,#708);
#706 = CARTESIAN_POINT('',(-1.5,-6.,-12.5));
#707 = DIRECTION('',(1.,0.,0.));
#708 = DIRECTION('',(0.,1.,0.));
#709 = FACE_BOUND('',#710,.T.);
#710 = EDGE_LOOP('',(#711));
#711 = ORIENTED_EDGE('',*,*,#712,.T.);
#712 = EDGE_CURVE('',#713,#713,#715,.T.);
#713 = VERTEX_POINT('',#714);
#714 = CARTESIAN_POINT('',(-1.5,-21.3,-12.5));
#715 = CIRCLE('',#716,1.7);
#716 = AXIS2_PLACEMENT_3D('',#717,#718,#719);
#717 = CARTESIAN_POINT('',(-1.5,-23.,-12.5));
#718 = DIRECTION('',(1.,0.,0.));
#719 = DIRECTION('',(0.,1.,0.));
#720 = PLANE('',#721);
#721 = AXIS2_PLACEMENT_3D('',#722,#723,#724);
#722 = CARTESIAN_POINT('',(-1.5,-14.,-11.55));
#723 = DIRECTION('',(-1.,-0.,-0.));
#724 = DIRECTION('',(0.,0.,-1.));
#725 = ADVANCED_FACE('',(#726),#745,.T.);
#726 = FACE_BOUND('',#727,.F.);
#727 = EDGE_LOOP('',(#728,#729,#737,#744));
#728 = ORIENTED_EDGE('',*,*,#658,.T.);
#729 = ORIENTED_EDGE('',*,*,#730,.T.);
#730 = EDGE_CURVE('',#659,#731,#733,.T.);
#731 = VERTEX_POINT('',#732);
#732 = CARTESIAN_POINT('',(1.7763568394E-15,-4.,-21.5));
#733 = LINE('',#734,#735);
#734 = CARTESIAN_POINT('',(-1.5,-4.,-21.5));
#735 = VECTOR('',#736,1.);
#736 = DIRECTION('',(1.,0.,1.110223024625E-16));
#737 = ORIENTED_EDGE('',*,*,#738,.F.);
#738 = EDGE_CURVE('',#402,#731,#739,.T.);
#739 = CIRCLE('',#740,4.);
#740 = AXIS2_PLACEMENT_3D('',#741,#742,#743);
#741 = CARTESIAN_POINT('',(6.661338147751E-16,-4.,-17.5));
#742 = DIRECTION('',(-1.,0.,-1.110223024625E-16));
#743 = DIRECTION('',(-1.110223024625E-16,0.,1.));
#744 = ORIENTED_EDGE('',*,*,#409,.F.);
#745 = CYLINDRICAL_SURFACE('',#746,4.);
#746 = AXIS2_PLACEMENT_3D('',#747,#748,#749);
#747 = CARTESIAN_POINT('',(-1.5,-4.,-17.5));
#748 = DIRECTION('',(1.,0.,1.110223024625E-16));
#749 = DIRECTION('',(0.,1.,0.));
#750 = ADVANCED_FACE('',(#751,#811,#822),#833,.T.);
#751 = FACE_BOUND('',#752,.T.);
#752 = EDGE_LOOP('',(#753,#754,#763,#771,#780,#788,#797,#803,#804,#805)
  );
#753 = ORIENTED_EDGE('',*,*,#513,.F.);
#754 = ORIENTED_EDGE('',*,*,#755,.F.);
#755 = EDGE_CURVE('',#756,#506,#758,.T.);
#756 = VERTEX_POINT('',#757);
#757 = CARTESIAN_POINT('',(0.,-9.5,-3.5));
#758 = CIRCLE('',#759,1.5);
#759 = AXIS2_PLACEMENT_3D('',#760,#761,#762);
#760 = CARTESIAN_POINT('',(6.931534909955E-16,-9.5,-2.));
#761 = DIRECTION('',(1.,-0.,0.));
#762 = DIRECTION('',(0.,0.,-1.));
#763 = ORIENTED_EDGE('',*,*,#764,.F.);
#764 = EDGE_CURVE('',#765,#756,#767,.T.);
#765 = VERTEX_POINT('',#766);
#766 = CARTESIAN_POINT('',(0.,-24.,-3.5));
#767 = LINE('',#768,#769);
#768 = CARTESIAN_POINT('',(0.,-28.,-3.5));
#769 = VECTOR('',#770,1.);
#770 = DIRECTION('',(0.,1.,0.));
#771 = ORIENTED_EDGE('',*,*,#772,.T.);
#772 = EDGE_CURVE('',#765,#773,#775,.T.);
#773 = VERTEX_POINT('',#774);
#774 = CARTESIAN_POINT('',(2.22044604925E-16,-28.,-7.5));
#775 = CIRCLE('',#776,4.);
#776 = AXIS2_PLACEMENT_3D('',#777,#778,#779);
#777 = CARTESIAN_POINT('',(6.931534909955E-16,-24.,-7.5));
#778 = DIRECTION('',(1.,-0.,0.));
#779 = DIRECTION('',(0.,0.,-1.));
#780 = ORIENTED_EDGE('',*,*,#781,.T.);
#781 = EDGE_CURVE('',#773,#782,#784,.T.);
#782 = VERTEX_POINT('',#783);
#783 = CARTESIAN_POINT('',(1.33226762955E-15,-28.,-17.5));
#784 = LINE('',#785,#786);
#785 = CARTESIAN_POINT('',(-4.440892098501E-16,-28.,-1.6));
#786 = VECTOR('',#787,1.);
#787 = DIRECTION('',(1.115802034799E-16,0.,-1.));
#788 = ORIENTED_EDGE('',*,*,#789,.F.);
#789 = EDGE_CURVE('',#790,#782,#792,.T.);
#790 = VERTEX_POINT('',#791);
#791 = CARTESIAN_POINT('',(1.554312234475E-15,-24.,-21.5));
#792 = CIRCLE('',#793,4.);
#793 = AXIS2_PLACEMENT_3D('',#794,#795,#796);
#794 = CARTESIAN_POINT('',(6.661338147751E-16,-24.,-17.5));
#795 = DIRECTION('',(-1.,0.,-2.368475785867E-15));
#796 = DIRECTION('',(-2.368475785867E-15,0.,1.));
#797 = ORIENTED_EDGE('',*,*,#798,.T.);
#798 = EDGE_CURVE('',#790,#731,#799,.T.);
#799 = LINE('',#800,#801);
#800 = CARTESIAN_POINT('',(1.7763568394E-15,-28.,-21.5));
#801 = VECTOR('',#802,1.);
#802 = DIRECTION('',(0.,1.,0.));
#803 = ORIENTED_EDGE('',*,*,#738,.F.);
#804 = ORIENTED_EDGE('',*,*,#401,.T.);
#805 = ORIENTED_EDGE('',*,*,#806,.F.);
#806 = EDGE_CURVE('',#514,#393,#807,.T.);
#807 = LINE('',#808,#809);
#808 = CARTESIAN_POINT('',(-4.440892098501E-16,-8.,-1.6));
#809 = VECTOR('',#810,1.);
#810 = DIRECTION('',(0.,1.,0.));
#811 = FACE_BOUND('',#812,.T.);
#812 = EDGE_LOOP('',(#813));
#813 = ORIENTED_EDGE('',*,*,#814,.F.);
#814 = EDGE_CURVE('',#815,#815,#817,.T.);
#815 = VERTEX_POINT('',#816);
#816 = CARTESIAN_POINT('',(0.,-4.3,-12.5));
#817 = CIRCLE('',#818,1.7);
#818 = AXIS2_PLACEMENT_3D('',#819,#820,#821);
#819 = CARTESIAN_POINT('',(0.,-6.,-12.5));
#820 = DIRECTION('',(1.,0.,0.));
#821 = DIRECTION('',(0.,1.,0.));
#822 = FACE_BOUND('',#823,.T.);
#823 = EDGE_LOOP('',(#824));
#824 = ORIENTED_EDGE('',*,*,#825,.F.);
#825 = EDGE_CURVE('',#826,#826,#828,.T.);
#826 = VERTEX_POINT('',#827);
#827 = CARTESIAN_POINT('',(0.,-21.3,-12.5));
#828 = CIRCLE('',#829,1.7);
#829 = AXIS2_PLACEMENT_3D('',#830,#831,#832);
#830 = CARTESIAN_POINT('',(0.,-23.,-12.5));
#831 = DIRECTION('',(1.,0.,0.));
#832 = DIRECTION('',(0.,1.,0.));
#833 = PLANE('',#834);
#834 = AXIS2_PLACEMENT_3D('',#835,#836,#837);
#835 = CARTESIAN_POINT('',(6.931534909955E-16,-14.,-11.55));
#836 = DIRECTION('',(1.,0.,0.));
#837 = DIRECTION('',(0.,0.,1.));
#838 = ADVANCED_FACE('',(#839),#846,.T.);
#839 = FACE_BOUND('',#840,.T.);
#840 = EDGE_LOOP('',(#841,#842,#843,#844,#845));
#841 = ORIENTED_EDGE('',*,*,#530,.T.);
#842 = ORIENTED_EDGE('',*,*,#521,.T.);
#843 = ORIENTED_EDGE('',*,*,#806,.T.);
#844 = ORIENTED_EDGE('',*,*,#392,.F.);
#845 = ORIENTED_EDGE('',*,*,#614,.T.);
#846 = CYLINDRICAL_SURFACE('',#847,3.1);
#847 = AXIS2_PLACEMENT_3D('',#848,#849,#850);
#848 = CARTESIAN_POINT('',(-3.1,-8.,-1.6));
#849 = DIRECTION('',(0.,1.,0.));
#850 = DIRECTION('',(0.,0.,1.));
#851 = ADVANCED_FACE('',(#852),#863,.F.);
#852 = FACE_BOUND('',#853,.T.);
#853 = EDGE_LOOP('',(#854,#855,#856,#857));
#854 = ORIENTED_EDGE('',*,*,#755,.T.);
#855 = ORIENTED_EDGE('',*,*,#505,.T.);
#856 = ORIENTED_EDGE('',*,*,#648,.F.);
#857 = ORIENTED_EDGE('',*,*,#858,.F.);
#858 = EDGE_CURVE('',#756,#641,#859,.T.);
#859 = LINE('',#860,#861);
#860 = CARTESIAN_POINT('',(0.,-9.5,-3.5));
#861 = VECTOR('',#862,1.);
#862 = DIRECTION('',(-1.,-0.,-0.));
#863 = CYLINDRICAL_SURFACE('',#864,1.5);
#864 = AXIS2_PLACEMENT_3D('',#865,#866,#867);
#865 = CARTESIAN_POINT('',(0.,-9.5,-2.));
#866 = DIRECTION('',(-1.,-0.,-0.));
#867 = DIRECTION('',(0.,0.,-1.));
#868 = ADVANCED_FACE('',(#869),#880,.F.);
#869 = FACE_BOUND('',#870,.F.);
#870 = EDGE_LOOP('',(#871,#872,#878,#879));
#871 = ORIENTED_EDGE('',*,*,#764,.F.);
#872 = ORIENTED_EDGE('',*,*,#873,.T.);
#873 = EDGE_CURVE('',#765,#639,#874,.T.);
#874 = LINE('',#875,#876);
#875 = CARTESIAN_POINT('',(0.,-24.,-3.5));
#876 = VECTOR('',#877,1.);
#877 = DIRECTION('',(-1.,-0.,-0.));
#878 = ORIENTED_EDGE('',*,*,#638,.T.);
#879 = ORIENTED_EDGE('',*,*,#858,.F.);
#880 = PLANE('',#881);
#881 = AXIS2_PLACEMENT_3D('',#882,#883,#884);
#882 = CARTESIAN_POINT('',(0.,-28.,-3.5));
#883 = DIRECTION('',(0.,0.,-1.));
#884 = DIRECTION('',(0.,1.,0.));
#885 = ADVANCED_FACE('',(#886),#897,.T.);
#886 = FACE_BOUND('',#887,.F.);
#887 = EDGE_LOOP('',(#888,#889,#895,#896));
#888 = ORIENTED_EDGE('',*,*,#772,.T.);
#889 = ORIENTED_EDGE('',*,*,#890,.T.);
#890 = EDGE_CURVE('',#773,#685,#891,.T.);
#891 = LINE('',#892,#893);
#892 = CARTESIAN_POINT('',(0.,-28.,-7.5));
#893 = VECTOR('',#894,1.);
#894 = DIRECTION('',(-1.,-0.,-0.));
#895 = ORIENTED_EDGE('',*,*,#692,.F.);
#896 = ORIENTED_EDGE('',*,*,#873,.F.);
#897 = CYLINDRICAL_SURFACE('',#898,4.);
#898 = AXIS2_PLACEMENT_3D('',#899,#900,#901);
#899 = CARTESIAN_POINT('',(0.,-24.,-7.5));
#900 = DIRECTION('',(-1.,-0.,-0.));
#901 = DIRECTION('',(0.,0.,1.));
#902 = ADVANCED_FACE('',(#903),#914,.F.);
#903 = FACE_BOUND('',#904,.F.);
#904 = EDGE_LOOP('',(#905,#906,#907,#908));
#905 = ORIENTED_EDGE('',*,*,#684,.F.);
#906 = ORIENTED_EDGE('',*,*,#890,.F.);
#907 = ORIENTED_EDGE('',*,*,#781,.T.);
#908 = ORIENTED_EDGE('',*,*,#909,.F.);
#909 = EDGE_CURVE('',#676,#782,#910,.T.);
#910 = LINE('',#911,#912);
#911 = CARTESIAN_POINT('',(-1.5,-28.,-17.5));
#912 = VECTOR('',#913,1.);
#913 = DIRECTION('',(1.,0.,2.368475785867E-15));
#914 = PLANE('',#915);
#915 = AXIS2_PLACEMENT_3D('',#916,#917,#918);
#916 = CARTESIAN_POINT('',(-1.5,-28.,-1.6));
#917 = DIRECTION('',(0.,1.,0.));
#918 = DIRECTION('',(1.115802034799E-16,0.,-1.));
#919 = ADVANCED_FACE('',(#920),#931,.T.);
#920 = FACE_BOUND('',#921,.F.);
#921 = EDGE_LOOP('',(#922,#923,#924,#925));
#922 = ORIENTED_EDGE('',*,*,#675,.T.);
#923 = ORIENTED_EDGE('',*,*,#909,.T.);
#924 = ORIENTED_EDGE('',*,*,#789,.F.);
#925 = ORIENTED_EDGE('',*,*,#926,.F.);
#926 = EDGE_CURVE('',#668,#790,#927,.T.);
#927 = LINE('',#928,#929);
#928 = CARTESIAN_POINT('',(-1.5,-24.,-21.5));
#929 = VECTOR('',#930,1.);
#930 = DIRECTION('',(1.,0.,2.368475785867E-15));
#931 = CYLINDRICAL_SURFACE('',#932,4.);
#932 = AXIS2_PLACEMENT_3D('',#933,#934,#935);
#933 = CARTESIAN_POINT('',(-1.5,-24.,-17.5));
#934 = DIRECTION('',(1.,0.,2.368475785867E-15));
#935 = DIRECTION('',(2.368475785867E-15,0.,-1.));
#936 = ADVANCED_FACE('',(#937),#943,.T.);
#937 = FACE_BOUND('',#938,.T.);
#938 = EDGE_LOOP('',(#939,#940,#941,#942));
#939 = ORIENTED_EDGE('',*,*,#798,.F.);
#940 = ORIENTED_EDGE('',*,*,#926,.F.);
#941 = ORIENTED_EDGE('',*,*,#667,.T.);
#942 = ORIENTED_EDGE('',*,*,#730,.T.);
#943 = PLANE('',#944);
#944 = AXIS2_PLACEMENT_3D('',#945,#946,#947);
#945 = CARTESIAN_POINT('',(-0.75,-14.,-21.5));
#946 = DIRECTION('',(1.665961781584E-15,0.,-1.));
#947 = DIRECTION('',(-1.,0.,-1.665961781584E-15));
#948 = ADVANCED_FACE('',(#949),#960,.F.);
#949 = FACE_BOUND('',#950,.F.);
#950 = EDGE_LOOP('',(#951,#957,#958,#959));
#951 = ORIENTED_EDGE('',*,*,#952,.T.);
#952 = EDGE_CURVE('',#815,#702,#953,.T.);
#953 = LINE('',#954,#955);
#954 = CARTESIAN_POINT('',(0.,-4.3,-12.5));
#955 = VECTOR('',#956,1.);
#956 = DIRECTION('',(-1.,-0.,-0.));
#957 = ORIENTED_EDGE('',*,*,#701,.T.);
#958 = ORIENTED_EDGE('',*,*,#952,.F.);
#959 = ORIENTED_EDGE('',*,*,#814,.F.);
#960 = CYLINDRICAL_SURFACE('',#961,1.7);
#961 = AXIS2_PLACEMENT_3D('',#962,#963,#964);
#962 = CARTESIAN_POINT('',(0.,-6.,-12.5));
#963 = DIRECTION('',(1.,0.,0.));
#964 = DIRECTION('',(0.,1.,0.));
#965 = ADVANCED_FACE('',(#966),#977,.F.);
#966 = FACE_BOUND('',#967,.F.);
#967 = EDGE_LOOP('',(#968,#974,#975,#976));
#968 = ORIENTED_EDGE('',*,*,#969,.T.);
#969 = EDGE_CURVE('',#826,#713,#970,.T.);
#970 = LINE('',#971,#972);
#971 = CARTESIAN_POINT('',(0.,-21.3,-12.5));
#972 = VECTOR('',#973,1.);
#973 = DIRECTION('',(-1.,-0.,-0.));
#974 = ORIENTED_EDGE('',*,*,#712,.T.);
#975 = ORIENTED_EDGE('',*,*,#969,.F.);
#976 = ORIENTED_EDGE('',*,*,#825,.F.);
#977 = CYLINDRICAL_SURFACE('',#978,1.7);
#978 = AXIS2_PLACEMENT_3D('',#979,#980,#981);
#979 = CARTESIAN_POINT('',(0.,-23.,-12.5));
#980 = DIRECTION('',(1.,0.,0.));
#981 = DIRECTION('',(0.,1.,0.));
#982 = ( GEOMETRIC_REPRESENTATION_CONTEXT(3) 
GLOBAL_UNCERTAINTY_ASSIGNED_CONTEXT((#986)) GLOBAL_UNIT_ASSIGNED_CONTEXT
((#983,#984,#985)) REPRESENTATION_CONTEXT('Context #1',
  '3D Context with UNIT and UNCERTAINTY') );
#983 = ( LENGTH_UNIT() NAMED_UNIT(*) SI_UNIT(.MILLI.,.METRE.) );
#984 = ( NAMED_UNIT(*) PLANE_ANGLE_UNIT() SI_UNIT($,.RADIAN.) );
#985 = ( NAMED_UNIT(*) SI_UNIT($,.STERADIAN.) SOLID_ANGLE_UNIT() );
#986 = UNCERTAINTY_MEASURE_WITH_UNIT(LENGTH_MEASURE(5.E-06),#983,
  'distance_accuracy_value','confusion accuracy');
#987 = PRODUCT_RELATED_PRODUCT_CATEGORY('part',$,(#7));
#988 = MECHANICAL_DESIGN_GEOMETRIC_PRESENTATION_REPRESENTATION('',(#989)
  ,#982);
#989 = STYLED_ITEM('color',(#990),#15);
#990 = PRESENTATION_STYLE_ASSIGNMENT((#991,#997));
#991 = SURFACE_STYLE_USAGE(.BOTH.,#992);
#992 = SURFACE_SIDE_STYLE('',(#993));
#993 = SURFACE_STYLE_FILL_AREA(#994);
#994 = FILL_AREA_STYLE('',(#995));
#995 = FILL_AREA_STYLE_COLOUR('',#996);
#996 = COLOUR_RGB('',0.800000010877,0.800000010877,0.800000010877);
#997 = CURVE_STYLE('',#998,POSITIVE_LENGTH_MEASURE(0.1),#999);
#998 = DRAUGHTING_PRE_DEFINED_CURVE_FONT('continuous');
#999 = COLOUR_RGB('',9.803921802644E-02,9.803921802644E-02,
  9.803921802644E-02);
ENDSEC;
END-ISO-10303-21;
